<?xml version="1.0" standalone="no"?>
<!DOCTYPE svg PUBLIC "-//W3C//DTD SVG 20010904//EN"
 "http://www.w3.org/TR/2001/REC-SVG-20010904/DTD/svg10.dtd">
<svg version="1.0" xmlns="http://www.w3.org/2000/svg"
 width="256.000000pt" height="256.000000pt" viewBox="0 0 256.000000 256.000000"
 preserveAspectRatio="xMidYMid meet">
<metadata>
Created by potrace 1.14, written by Peter Selinger 2001-2017
</metadata>
<g transform="translate(0.000000,256.000000) scale(0.100000,-0.100000)"
fill="#000000" stroke="none">
<path d="M1199 2387 c-1 -7 0 -24 1 -39 1 -26 -1 -28 -39 -28 l-41 0 0 -40 0
-40 -40 0 -40 0 0 -40 c0 -40 0 -40 -40 -40 l-39 0 -1 -191 c0 -105 -2 -195
-5 -200 -4 -5 -22 -9 -41 -9 l-34 0 0 -80 c0 -86 -1 -87 -62 -81 -15 2 -18 -9
-20 -76 l-3 -78 -37 -3 c-37 -3 -38 -4 -38 -43 0 -37 -2 -39 -27 -38 -16 1
-106 0 -200 -1 l-173 -1 0 -40 c0 -39 0 -39 40 -39 l40 0 0 -40 c0 -38 1 -40
33 -41 17 -1 35 -1 40 0 4 0 7 -17 7 -39 0 -40 0 -40 -40 -40 l-40 0 0 -40 c0
-27 -4 -40 -12 -39 -43 5 -69 -2 -67 -18 5 -56 1 -63 -41 -63 l-40 0 0 -40 c0
-27 4 -40 13 -39 6 1 24 1 40 0 23 -1 27 -5 27 -30 0 -49 7 -57 45 -53 35 4
35 4 35 -37 l0 -41 40 0 c40 0 40 0 40 -40 l0 -39 78 -3 77 -3 3 -38 c3 -36 4
-37 43 -37 39 0 39 0 39 -40 l0 -40 41 0 c36 0 41 -2 36 -20 -3 -11 -1 -20 3
-20 4 0 6 -9 3 -20 -5 -18 0 -20 36 -20 l41 0 0 -40 c0 -40 0 -40 39 -40 39 0
40 -1 43 -38 3 -35 5 -37 41 -40 35 -3 37 -5 37 -37 0 -39 -13 -50 -52 -46
-26 2 -28 0 -28 -38 l0 -41 320 1 320 0 0 40 c0 34 -3 39 -22 39 -13 -1 -67
-1 -120 -1 l-98 0 -1 33 c-1 18 -1 36 0 41 0 4 -17 7 -39 7 -40 0 -40 0 -40
-39 0 -36 -3 -40 -27 -43 -16 -2 -52 -1 -81 0 -51 4 -53 5 -52 30 3 39 1 52
-7 51 -5 -1 -23 -1 -40 0 l-33 1 0 80 0 81 40 -3 c39 -2 40 -3 40 -40 0 -38 0
-38 40 -38 l40 0 0 -41 c0 -28 4 -39 13 -36 6 2 22 0 34 -4 31 -11 41 10 33
70 -9 70 1 91 45 91 34 0 35 1 35 40 l0 40 40 0 40 0 0 40 0 40 40 0 40 0 0
40 0 40 40 0 40 0 0 40 0 40 40 0 c39 0 40 1 40 34 0 39 11 49 51 48 l29 -1 0
119 0 119 41 3 42 3 -2 118 c-2 109 -1 118 16 117 64 -7 65 -7 61 80 l-3 80
43 0 42 0 0 41 c0 36 3 40 23 39 12 -1 48 -2 80 -1 l57 1 0 40 0 40 79 0 80 0
3 43 3 42 38 -3 37 -4 0 41 0 41 -40 0 -40 0 0 40 0 40 -40 0 -40 0 0 40 0 40
-40 0 -40 0 0 40 0 40 -40 0 -40 0 0 80 0 80 -40 0 -40 0 0 40 0 40 -40 0 -40
0 0 40 0 40 -72 1 c-40 1 -76 1 -80 0 -5 0 -8 17 -8 39 l0 39 -280 0 c-213 0
-280 -3 -281 -12z"/>
</g>
</svg>
